<svg id="SvgjsSvg1001" width="288" height="288" xmlns="http://www.w3.org/2000/svg" version="1.1"
>
    <defs id="SvgjsDefs1002"></defs>
    <g id="SvgjsG1008"
       transform="matrix(0.916700005531311,0,0,0.916700005531311,11.995199203491211,11.995036125183105)"><!--?xml version="1.0" encoding="UTF-8"?-->
        <svg xmlns="http://www.w3.org/2000/svg"
             version="1.1" id="Layer_1" x="0px" y="0px" viewBox="0 0 24 24" xml:space="preserve" width="288"
             height="288"><path id="base_color_10_" fill="#4597ff" d="M12 0C5.383 0 0 5.383 0 12s5.383 12 12 12 12-5.383 12-12S18.617 0 12 0z" class="colorF47920 svgShape"></path>
            <g id="light_foil_8_" fill="#ffffff" class="colorFFF svgShape"><path opacity="0.5" d="M3.62 10.487C6.61 8.762 10.566 9.515 12 12c1.435-2.485.11-6.288-2.88-8.013-1.216-.703-3.294-1.12-4.812-1.186C1.678 5.004 0 8.31 0 12c0 .555.051 1.097.124 1.633.965-1.194 2.461-2.548 3.497-3.146z" fill="#000000" class="color000 svgShape"></path>
                <path opacity="0.4"
                      d="M12 12c2.87 0 5.5-3.05 5.5-6.5 0-1.327-.171-3.172-.73-4.505A11.942 11.942 0 0 0 4.308 2.802c1.518.065 3.596.482 4.813 1.185C12.109 5.712 13.435 9.515 12 12z"
                      fill="#000000" class="color000 svgShape"></path>
                <path opacity="0.1"
                      d="M24 12c0-.555-.051-1.097-.124-1.633-.965 1.194-2.461 2.548-3.497 3.146-2.988 1.725-6.944.972-8.379-1.513-1.435 2.485-.11 6.288 2.88 8.013 1.101.637 3.271 1.04 4.841 1.16C22.334 18.968 24 15.676 24 12z"
                      fill="#000000" class="color000 svgShape"></path>
                <path opacity="0.3"
                      d="M12 12c-1.435-2.485-5.39-3.238-8.38-1.513-1.035.598-2.53 1.952-3.496 3.146a12.022 12.022 0 0 0 7.106 9.372c-.559-1.333-.73-3.178-.73-4.505 0-3.45 2.63-6.5 5.5-6.5z"
                      fill="#000000" class="color000 svgShape"></path>
                <path opacity="0.2"
                      d="M12 12c-2.87 0-5.5 3.05-5.5 6.5 0 1.327.171 3.172.73 4.505a11.94 11.94 0 0 0 12.491-1.833c-1.57-.12-3.74-.522-4.842-1.159C11.891 18.288 10.565 14.485 12 12z"
                      fill="#000000" class="color000 svgShape"></path></g>
            <metadata><rdf:rdf xmlns:rdf="http://www.w3.org/1999/02/22-rdf-syntax-ns#"  xmlns:dc="http://purl.org/dc/elements/1.1/"><rdf:description about="https://iconscout.com/legal#licenses" dc:title="load,busy,progress,process,wait,loader" dc:description="load,busy,progress,process,wait,loader" dc:publisher="Iconscout" dc:date="2017-11-13" dc:format="image/svg+xml" dc:language="en"><dc:creator><rdf:bag><rdf:li>Those Icons</rdf:li></rdf:bag></dc:creator></rdf:description></rdf:rdf></metadata></svg>
    </g>
</svg>